# xmcd
#
# Track frame offsets:
#	150
#	12212
#	33040
#	48992
#	69984
#	82681
#	104294
#	135810
#	149849
#	164380
#	175284
#	189651
#	201607
#	228701
#	238440
#	260270
#	280099
#	293280
#	316457
#
# Disc length: 4534 seconds
#
# Revision: 1
# Processed by: cddbd v1.5.1PL0 Copyright (c) Steve Scherf et al.
# Submitted via: EasyCDDAExtractor 6.0.0.1
#
DISCID=0b11b413
DTITLE=Sharp Edge - Live
DYEAR=1900
DGENRE=Blues
TTITLE0=Rock Me Baby (B.B. King)
TTITLE1=Don't Let Me Be Understood (The Animals)
TTITLE2=The Last Time (The Rolling Stones)
TTITLE3=Backdoor Man (W. Dixon/The Doors)
TTITLE4=Slow Down (L. Williams/The Beatles)
TTITLE5=Sunshine Superman (Donovan)
TTITLE6=Moneymaker/Not Fade Away (E. James/B. Holly)
TTITLE7=Ya-Ya (Lee Dorsey)
TTITLE8=Hound Dog (Big Mama Thorton)
TTITLE9=Heart Full of Soul (The Yardbirds)
TTITLE10=Love Me Two Times (The Doors)
TTITLE11=Tired of Waiting For You (The Kinks)
TTITLE12=All Along The Watchtower (Jimi Hendrix)
TTITLE13=Can't Buy Me Love (The Beatles)
TTITLE14=Positively 4th Street (Bob Dylan)
TTITLE15=Crossroads (Robert Johnson)
TTITLE16=Green River (C.C.R.)
TTITLE17=The In Crowd (The Ramsey Lewis Trio)
TTITLE18=19th Nervous Breakdown (The Rolling Stones)
EXTD=
EXTT0=
EXTT1=
EXTT2=
EXTT3=
EXTT4=
EXTT5=
EXTT6=
EXTT7=
EXTT8=
EXTT9=
EXTT10=
EXTT11=
EXTT12=
EXTT13=
EXTT14=
EXTT15=
EXTT16=
EXTT17=
EXTT18=
PLAYORDER=
